<?xml version="1.0" encoding="UTF-8" standalone="no"?><!DOCTYPE svg PUBLIC "-//W3C//DTD SVG 1.1//EN" "http://www.w3.org/Graphics/SVG/1.1/DTD/svg11.dtd"><svg width="100%" height="100%" viewBox="0 0 33 33" version="1.1" xmlns="http://www.w3.org/2000/svg" xmlns:xlink="http://www.w3.org/1999/xlink" xml:space="preserve" xmlns:serif="http://www.serif.com/" style="fill-rule:evenodd;clip-rule:evenodd;stroke-linejoin:round;stroke-miterlimit:2;"><path d="M26.852,26.852c-0.292,-0.904 -0.641,-1.754 -1.029,-2.565c1.546,-1.739 2.607,-3.91 2.976,-6.315c1.401,-0.369 2.8,-0.84 4.201,-1.475c-1.366,-0.616 -2.729,-1.078 -4.092,-1.443c-0.218,-2.614 -1.238,-4.997 -2.829,-6.895c0.286,-0.645 0.549,-1.312 0.773,-2.014c-0.693,0.224 -1.353,0.484 -1.991,0.766c-1.909,-1.716 -4.346,-2.854 -7.04,-3.117c-0.346,-1.264 -0.769,-2.53 -1.324,-3.794c-0.555,1.273 -0.978,2.55 -1.325,3.823c-2.652,0.311 -5.041,1.462 -6.908,3.178c-0.676,-0.314 -1.379,-0.603 -2.119,-0.856c0.259,0.756 0.554,1.472 0.875,2.164c-1.514,1.87 -2.492,4.192 -2.703,6.732c-1.44,0.365 -2.877,0.83 -4.317,1.456c1.475,0.648 2.95,1.116 4.426,1.485c0.362,2.338 1.372,4.457 2.851,6.167c-0.424,0.853 -0.805,1.751 -1.132,2.703c0.968,-0.33 1.876,-0.718 2.738,-1.148c1.697,1.363 3.759,2.28 6.017,2.595c0.391,1.565 0.891,3.133 1.597,4.698c0.705,-1.556 1.206,-3.111 1.594,-4.666c2.296,-0.273 4.4,-1.181 6.131,-2.54c0.831,0.401 1.703,0.76 2.63,1.061" style="fill:#80333b;fill-rule:nonzero;"/></svg>