<?xml version="1.0" encoding="UTF-8" standalone="no"?>
<!DOCTYPE svg PUBLIC "-//W3C//DTD SVG 1.1//EN" "http://www.w3.org/Graphics/SVG/1.1/DTD/svg11.dtd">
<svg width="100%" height="100%" viewBox="0 0 512 512" version="1.1" xmlns="http://www.w3.org/2000/svg" xmlns:xlink="http://www.w3.org/1999/xlink" xml:space="preserve" xmlns:serif="http://www.serif.com/" style="fill-rule:evenodd;clip-rule:evenodd;stroke-linejoin:round;stroke-miterlimit:2;">
    <rect id="Artboard1" x="0" y="0" width="512" height="512" style="fill:none;"/>
    <g id="Artboard11" serif:id="Artboard1">
        <rect x="0" y="0" width="512" height="512" style="fill:rgb(35,33,31);"/>
        <g transform="matrix(33.8812,0,0,33.8812,174.55,467.422)">
            <path d="M0,-12.486C0.217,-12.444 0.63,-12.439 0.842,-12.478C0.851,-12.48 0.855,-12.504 0.861,-12.517C0.649,-12.595 0.286,-12.583 0,-12.486M1.818,-6.996C2.014,-6.969 2.168,-6.946 2.322,-6.926C2.576,-6.893 2.804,-6.955 3.009,-7.11C3.503,-7.487 3.874,-7.962 4.12,-8.533C4.185,-8.686 4.213,-8.846 4.213,-9.015C4.212,-9.214 4.222,-9.414 4.225,-9.614C4.226,-9.691 4.233,-9.773 4.214,-9.847C4.1,-10.304 3.928,-10.738 3.679,-11.14C3.563,-11.329 3.399,-11.449 3.192,-11.509C3.076,-11.543 2.956,-11.573 2.836,-11.58C2.506,-11.6 2.175,-11.593 1.85,-11.518C1.836,-11.515 1.825,-11.497 1.813,-11.487L1.813,-11.341C1.879,-11.317 1.933,-11.298 1.989,-11.278C1.984,-11.24 1.987,-11.212 1.977,-11.19C1.862,-10.939 1.833,-10.673 1.842,-10.401C1.846,-10.262 1.844,-10.122 1.842,-9.984C1.842,-9.968 1.83,-9.953 1.82,-9.931C1.801,-9.925 1.777,-9.917 1.753,-9.91C1.722,-9.901 1.69,-9.892 1.664,-9.884C1.631,-9.63 1.633,-9.098 1.668,-8.879C1.72,-8.864 1.776,-8.85 1.846,-8.83C1.854,-8.715 1.868,-8.604 1.872,-8.492C1.881,-8.179 1.888,-7.866 1.893,-7.554C1.896,-7.373 1.925,-7.19 1.818,-6.996M3.104,-4.689C3.103,-4.672 3.106,-4.653 3.099,-4.638C3.01,-4.443 3.022,-4.264 3.128,-4.07C3.23,-3.877 3.254,-3.657 3.261,-3.437C3.266,-3.281 3.212,-3.173 3.075,-3.087C3.028,-3.157 3.047,-3.227 3.048,-3.291C3.052,-3.511 3.013,-3.723 2.943,-3.93C2.888,-4.089 2.809,-4.232 2.703,-4.361C2.602,-4.486 2.481,-4.586 2.322,-4.618C2.103,-4.663 1.92,-4.77 1.742,-4.9C1.547,-5.044 1.337,-5.169 1.127,-5.294C0.705,-5.546 0.254,-5.72 -0.236,-5.783C-0.402,-5.804 -0.557,-5.856 -0.708,-5.927C-0.92,-6.026 -1.137,-6.115 -1.352,-6.209C-1.383,-6.223 -1.413,-6.241 -1.44,-6.262C-1.483,-6.295 -1.474,-6.351 -1.423,-6.406C-1.412,-6.418 -1.405,-6.433 -1.39,-6.457C-1.443,-6.522 -1.562,-6.493 -1.593,-6.589L-1.76,-6.589C-1.803,-6.658 -1.852,-6.738 -1.876,-6.778C-1.885,-6.979 -1.89,-7.133 -1.896,-7.289C-1.897,-7.298 -1.898,-7.306 -1.9,-7.315C-1.948,-7.616 -1.937,-7.904 -1.713,-8.145C-1.683,-8.175 -1.667,-8.218 -1.643,-8.254C-1.639,-8.261 -1.63,-8.265 -1.61,-8.281C-1.589,-8.266 -1.545,-8.253 -1.541,-8.231C-1.465,-7.853 -1.228,-7.579 -0.964,-7.32C-0.933,-7.29 -0.902,-7.258 -0.872,-7.228C-0.732,-7.095 -0.528,-7.126 -0.44,-7.299C-0.414,-7.351 -0.397,-7.414 -0.397,-7.473C-0.398,-7.611 -0.403,-7.752 -0.425,-7.888C-0.452,-8.071 -0.45,-8.252 -0.434,-8.435C-0.369,-9.155 -0.337,-9.877 -0.407,-10.597C-0.437,-10.903 -0.443,-11.204 -0.418,-11.507C-0.405,-11.663 -0.44,-11.803 -0.54,-11.921C-0.656,-12.061 -0.778,-12.197 -0.905,-12.328C-0.945,-12.368 -1.011,-12.385 -1.067,-12.408C-1.295,-12.5 -1.497,-12.63 -1.692,-12.811C-1.646,-12.839 -1.616,-12.866 -1.58,-12.876C-1.163,-12.99 -0.738,-13.007 -0.311,-12.997C0.002,-12.989 0.314,-12.97 0.619,-12.884C0.678,-12.867 0.734,-12.865 0.776,-12.936C0.793,-12.963 0.851,-12.979 0.889,-12.979C1.255,-12.978 1.622,-12.986 1.985,-12.963C2.41,-12.936 2.836,-12.899 3.256,-12.825C3.805,-12.727 4.343,-12.592 4.85,-12.353C5.142,-12.216 5.415,-12.047 5.653,-11.826C6.125,-11.388 6.358,-10.845 6.382,-10.206C6.395,-9.872 6.356,-9.546 6.275,-9.224C6.234,-9.062 6.21,-8.898 6.234,-8.733C6.277,-8.431 6.189,-8.17 6.016,-7.924C5.834,-7.667 5.63,-7.431 5.402,-7.215C5.201,-7.023 4.992,-6.839 4.787,-6.65C4.711,-6.581 4.635,-6.509 4.547,-6.426C4.596,-6.39 4.626,-6.357 4.662,-6.345C4.768,-6.308 4.878,-6.28 4.985,-6.245C5.251,-6.159 5.503,-6.043 5.734,-5.885C6.3,-5.497 6.605,-4.954 6.699,-4.282C6.779,-3.72 6.7,-3.172 6.567,-2.629C6.511,-2.401 6.438,-2.178 6.371,-1.947C6.417,-1.921 6.46,-1.896 6.503,-1.871C6.309,-1.255 5.926,-0.785 5.404,-0.422C5.052,-0.178 4.673,0.016 4.277,0.174C4.04,0.27 3.788,0.292 3.538,0.321C3.254,0.356 2.969,0.395 2.683,0.419C2.397,0.444 2.111,0.456 1.824,0.473C1.564,0.488 1.304,0.502 1.043,0.515C0.981,0.518 0.921,0.521 0.86,0.518C0.417,0.493 -0.026,0.469 -0.469,0.441C-0.703,0.426 -0.936,0.404 -1.171,0.385C-1.188,0.384 -1.206,0.382 -1.223,0.38C-1.357,0.361 -1.359,0.358 -1.359,0.192C-1.436,0.16 -1.514,0.127 -1.585,0.098C-1.592,0.027 -1.552,0.005 -1.514,-0.014C-1.379,-0.075 -1.239,-0.125 -1.109,-0.194C-0.955,-0.274 -0.804,-0.36 -0.692,-0.518C-0.739,-0.852 -0.683,-1.185 -0.624,-1.52C-0.579,-1.768 -0.56,-2.019 -0.577,-2.274C-0.618,-2.873 -0.599,-3.473 -0.552,-4.073C-0.529,-4.367 -0.513,-4.662 -0.492,-4.957C-0.485,-5.051 -0.486,-5.146 -0.441,-5.241C-0.283,-5.262 -0.145,-5.203 -0.005,-5.165C0.249,-5.097 0.476,-4.968 0.705,-4.843C0.926,-4.721 1.149,-4.605 1.375,-4.491C1.418,-4.469 1.467,-4.441 1.524,-4.49C1.494,-4.591 1.423,-4.666 1.352,-4.741C1.205,-4.892 1.033,-5.01 0.849,-5.108C0.509,-5.291 0.151,-5.422 -0.23,-5.482C-0.315,-5.495 -0.398,-5.516 -0.486,-5.535L-0.486,-5.657C-0.429,-5.659 -0.377,-5.669 -0.329,-5.661C0.209,-5.582 0.723,-5.426 1.188,-5.139C1.412,-5.002 1.618,-4.841 1.754,-4.612C1.749,-4.539 1.633,-4.455 1.776,-4.401C1.784,-4.316 1.797,-4.229 1.796,-4.144C1.795,-4.071 1.817,-3.993 1.731,-3.935C1.668,-3.893 1.692,-3.813 1.707,-3.751L1.785,-3.751C1.785,-3.639 1.786,-3.536 1.785,-3.431C1.784,-3.37 1.779,-3.314 1.716,-3.274C1.693,-3.26 1.68,-3.215 1.679,-3.185C1.668,-2.68 1.659,-2.175 1.651,-1.671C1.651,-1.656 1.665,-1.641 1.679,-1.612C1.976,-1.568 2.273,-1.61 2.577,-1.694C2.606,-1.663 2.631,-1.628 2.664,-1.603C2.696,-1.577 2.732,-1.55 2.771,-1.54C2.846,-1.519 2.925,-1.512 3.001,-1.496C3.117,-1.471 3.208,-1.508 3.275,-1.601C3.342,-1.692 3.411,-1.782 3.468,-1.879C3.713,-2.294 3.896,-2.733 4.012,-3.2C4.017,-3.217 4.024,-3.233 4.027,-3.251C4.099,-3.714 4.116,-3.729 3.888,-4.09C3.801,-4.229 3.719,-4.372 3.66,-4.473C3.509,-4.545 3.397,-4.59 3.295,-4.649C3.228,-4.688 3.164,-4.688 3.095,-4.68C3.093,-4.73 3.09,-4.78 3.087,-4.828C2.989,-4.887 2.901,-4.94 2.815,-4.994C2.719,-4.969 2.633,-4.946 2.52,-4.916C2.603,-4.828 2.665,-4.758 2.73,-4.691C2.784,-4.638 2.804,-4.543 2.888,-4.532C2.996,-4.517 3.003,-4.647 3.079,-4.684C3.087,-4.687 3.095,-4.687 3.104,-4.689" style="fill:rgb(253,228,24);fill-rule:nonzero;"/>
        </g>
    </g>
</svg>
